# xmcd
#
# Track frame offsets:
#	150
#	16650
#	37125
#	61425
#	80400
#	100575
#	119625
#	133650
#	155550
#	175200
#	192525
#	215400
#	227775
#	242925
#	260550
#	286200
#
# Disc length: 4216 seconds
#
# Revision: 1
# Processed by: cddbd v1.5.2PL0 Copyright (c) Steve Scherf et al.
# Submitted via: audiograbber 1.83.01
#
DISCID=e9107610
DTITLE=Various Artist - All Hits
DYEAR=1900
DGENRE=KARAOKE
TTITLE0=Stone Free - Jimi Hendrix
TTITLE1=Babe - Styx
TTITLE2=Hells Bells - AC/DC
TTITLE3=Stone In Love - Journey
TTITLE4=Beginnings - Chicago
TTITLE5=She Caught The Katy - Blues Brothers
TTITLE6=Come To Poppa - Bob Seger
TTITLE7=Crazy Train - Ozzy Osbourne
TTITLE8=5:15 - The Who
TTITLE9=Can We Still Be Friends - Todd Rundgren
TTITLE10=Heart Of The Matter - Don Henley
TTITLE11=You Really Got Me - Van Halen
TTITLE12=Ziggy Stardust - David Bowie
TTITLE13=Sweet Lorraine - Uriah Heep
TTITLE14=New York State Of Mind - Billy Joel
TTITLE15=Hold On Loosely - 38 Special
EXTD=
EXTT0=
EXTT1=
EXTT2=
EXTT3=
EXTT4=
EXTT5=
EXTT6=
EXTT7=
EXTT8=
EXTT9=
EXTT10=
EXTT11=
EXTT12=
EXTT13=
EXTT14=
EXTT15=
PLAYORDER=
